{"title":"The Thin Red Line*1998*[BluRay][720p][ENG, POL]","uid":5883461,"size":10384015798,"categoryP":"video","categoryS":"hd___movies","magnet":"?xt=urn:btih:32c5d7a11de93efba3fc40a42f7aaa98ef652fdb&amp;dn=The+Thin+Red+Line%2A1998%2A%5BBluRay%5D%5B720p%5D%5BENG%2C+POL%5D&amp;tr=udp%3A%2F%2Ftracker.openbittorrent.com%3A80&amp;tr=udp%3A%2F%2Fopen.demonii.com%3A1337&amp;tr=udp%3A%2F%2Ftracker.coppersurfer.tk%3A6969&amp;tr=udp%3A%2F%2Fexodus.desync.com%3A6969","seeders":0,"leechers":1,"uploader":"albedo040","files":1,"time":1286981801,"description":"The Thin Red Line*1998*[BluRay][720p][ENG, POL]\n\nGeneral information:\nCountry: USA\nRelease: 23 December 1998\nGenre: Action, Drama, War \nDirector: Terrence Malick\nScreenplay: Terrence Malick, James Jones (novel)\nOriginal Music: Hans Zimmer\nCinematography by: John Toll\nDuration: 2h 50mn\nLanguage: English, Polish\nSubtitles: English, Polish \nRating: 7.9/10 - 16202 votes \n\nCast:\nKirk Acevedo  ...  Pvt. Tella  \nSean Penn  ...  1st Sgt. Edward Welsh  \nPenelope Allen  ...  Witt's Mother (as Penny Allen)  \nAdrien Brody  ...  Cpl. Fife  \nJames Caviezel  ...  Pvt. Witt (as Jim Caviezel)  \nBenjamin Green  ...  Melanesian Villager (as Benjamin)  \nSimon Billig  ...  Lt. Col. Billig  \nBen Chaplin  ...  Pvt. Bell  \nMark Boone Junior  ...  Pvt. Peale  \nGeorge Clooney  ...  Capt. Charles Bosche  \nJohn Cusack  ...  Capt. John Gaff  \nNorman Patrick Brown  ...  Pvt. Henry  \nWoody Harrelson  ...  Sgt. Keck  \nElias Koteas  ...  Capt. James 'Bugger' Staros  \nNick Nolte  ...  Lt. Col. Gordon Tall  \n\nPlot:\nDirector Terrence Malick's adaptation of James Jones' autobiographical 1962 novel, focusing on the conflict at Guadalcanal during the second World War.\n\nSpecifications:\nGeneral\nFormat                           : Matroska\nOverall bit rate                 : 8 106 Kbps\n\nVideo\nFormat                           : AVC\nFormat/Info                      : Advanced Video Codec\nFormat profile                   : &lt;a class=&quot;__cf_email__&quot; href=&quot;/cdn-cgi/l/email-protection&quot; data-cfemail=&quot;155d7c727d5559213b24&quot;&gt;[email&amp;#160;protected]&lt;/a&gt;&lt;script cf-hash='f9e31' type=&quot;text/javascript&quot;&gt;\n/* &lt;![CDATA[ */!function(){try{var t=&quot;currentScript&quot;in document?document.currentScript:function(){for(var t=document.getElementsByTagName(&quot;script&quot;),e=t.length;e--;)if(t[e].getAttribute(&quot;cf-hash&quot;))return t[e]}();if(t&amp;&amp;t.previousSibling){var e,r,n,i,c=t.previousSibling,a=c.getAttribute(&quot;data-cfemail&quot;);if(a){for(e=&quot;&quot;,r=parseInt(a.substr(0,2),16),n=2;a.length-n;n+=2)i=parseInt(a.substr(n,2),16)^r,e+=String.fromCharCode(i);e=document.createTextNode(e),c.parentNode.replaceChild(e,c)}}}catch(u){}}();/* ]]&gt; */&lt;/script&gt;\nFormat settings, CABAC           : Yes\nFormat settings, ReFrames        : 8 frames\nMuxing mode                      : Container profile=&lt;a class=&quot;__cf_email__&quot; href=&quot;/cdn-cgi/l/email-protection&quot; data-cfemail=&quot;2d78434643425a436d19031c&quot;&gt;[email&amp;#160;protected]&lt;/a&gt;&lt;script cf-hash='f9e31' type=&quot;text/javascript&quot;&gt;\n/* &lt;![CDATA[ */!function(){try{var t=&quot;currentScript&quot;in document?document.currentScript:function(){for(var t=document.getElementsByTagName(&quot;script&quot;),e=t.length;e--;)if(t[e].getAttribute(&quot;cf-hash&quot;))return t[e]}();if(t&amp;&amp;t.previousSibling){var e,r,n,i,c=t.previousSibling,a=c.getAttribute(&quot;data-cfemail&quot;);if(a){for(e=&quot;&quot;,r=parseInt(a.substr(0,2),16),n=2;a.length-n;n+=2)i=parseInt(a.substr(n,2),16)^r,e+=String.fromCharCode(i);e=document.createTextNode(e),c.parentNode.replaceChild(e,c)}}}catch(u){}}();/* ]]&gt; */&lt;/script&gt;\nCodec ID                         : V_MPEG4/ISO/AVC\nBit rate                         : 5 960 Kbps\nWidth                            : 1 280 pixels\nHeight                           : 546 pixels\nDisplay aspect ratio             : 2.35:1\nFrame rate                       : 23.976 fps\n\nAudio 1\nFormat                           : DTS\nFormat/Info                      : Digital Theater Systems\nCodec ID                         : A_DTS\nBit rate mode                    : Constant\nBit rate                         : 1 510 Kbps\nChannel(s)                       : 6 channels\nChannel positions                : Front: L C R, Side: L R, LFE\nSampling rate                    : 48.0 KHz\nBit depth                        : 24 bits\nStream size                      : 1.80 GiB (19%)\nTitle                            : English\n\nAudio 2\nFormat                           : AC-3\nFormat/Info                      : Audio Coding 3\nMode extension                   : CM (complete main)\nCodec ID                         : A_AC3\nBit rate mode                    : Constant\nBit rate                         : 640 Kbps\nChannel(s)                       : 6 channels\nChannel positions                : Front: L C R, Side: L R, LFE\nSampling rate                    : 48.0 KHz\nStream size                      : 782 MiB (8%)\nTitle                            : Polish\nLanguage                         : Polish\n\nText 1\nFormat                           : UTF-8\nCodec ID                         : S_TEXT/UTF8\nCodec ID/Info                    : UTF-8 Plain Text\nTitle                            : English\n\nText 2\nFormat                           : UTF-8\nCodec ID                         : S_TEXT/UTF8\nCodec ID/Info                    : UTF-8 Plain Text\nTitle                            : Polish\nLanguage                         : Polish\n","torrent":{"xt":"urn:btih:32c5d7a11de93efba3fc40a42f7aaa98ef652fdb","amp;dn":"The+Thin+Red+Line%2A1998%2A%5BBluRay%5D%5B720p%5D%5BENG%2C+POL%5D","amp;tr":["udp%3A%2F%2Ftracker.openbittorrent.com%3A80","udp%3A%2F%2Fopen.demonii.com%3A1337","udp%3A%2F%2Ftracker.coppersurfer.tk%3A6969","udp%3A%2F%2Fexodus.desync.com%3A6969"],"infoHash":"32c5d7a11de93efba3fc40a42f7aaa98ef652fdb","infoHashBuffer":{"type":"Buffer","data":[50,197,215,161,29,233,62,251,163,252,64,164,47,122,170,152,239,101,47,219]},"announce":[],"urlList":[]}}